<?xml version="1.0" encoding="UTF-8" standalone="no"?>
<!-- Generator: Adobe Illustrator 15.0.0, SVG Export Plug-In . SVG Version: 6.00 Build 0)  -->

<svg
   xmlns:dc="http://purl.org/dc/elements/1.1/"
   xmlns:cc="http://creativecommons.org/ns#"
   xmlns:rdf="http://www.w3.org/1999/02/22-rdf-syntax-ns#"
   xmlns:svg="http://www.w3.org/2000/svg"
   xmlns="http://www.w3.org/2000/svg"
   xmlns:sodipodi="http://sodipodi.sourceforge.net/DTD/sodipodi-0.dtd"
   xmlns:inkscape="http://www.inkscape.org/namespaces/inkscape"
   version="1.1"
   id="Ebene_1"
   x="0px"
   y="0px"
   width="15.999998"
   height="16"
   viewBox="0 0 15.999998 16.000002"
   enable-background="new 0 0 484.475 112.494"
   xml:space="preserve"
   inkscape:version="0.91 r13725"
   sodipodi:docname="IfcExport.svg"><metadata
     id="metadata83"><rdf:RDF><cc:Work
         rdf:about=""><dc:format>image/svg+xml</dc:format><dc:type
           rdf:resource="http://purl.org/dc/dcmitype/StillImage" /><dc:title /></cc:Work></rdf:RDF></metadata><defs
     id="defs81" /><sodipodi:namedview
     pagecolor="#ffffff"
     bordercolor="#666666"
     borderopacity="1"
     objecttolerance="10"
     gridtolerance="10"
     guidetolerance="10"
     inkscape:pageopacity="0"
     inkscape:pageshadow="2"
     inkscape:window-width="1536"
     inkscape:window-height="801"
     id="namedview79"
     showgrid="false"
     inkscape:zoom="5.9115537"
     inkscape:cx="16.924602"
     inkscape:cy="13.838216"
     inkscape:window-x="-8"
     inkscape:window-y="-8"
     inkscape:window-maximized="1"
     inkscape:current-layer="Ebene_1"
     fit-margin-top="0"
     fit-margin-left="0"
     fit-margin-right="0"
     fit-margin-bottom="1" /><g
     id="g4345"
     transform="translate(0.13377638,16.419167)" /><g
     id="g4347"
     transform="translate(0.13377638,16.419167)" /><g
     id="g4349"
     transform="translate(0.13377638,16.419167)" /><g
     id="g4351"
     transform="translate(0.13377638,16.419167)" /><g
     id="g4353"
     transform="translate(0.13377638,16.419167)" /><g
     id="g4355"
     transform="translate(0.13377638,16.419167)" /><g
     id="g4357"
     transform="translate(0.13377638,16.419167)" /><g
     id="g4359"
     transform="translate(0.13377638,16.419167)" /><g
     id="g4361"
     transform="translate(0.13377638,16.419167)" /><g
     id="g4363"
     transform="translate(0.13377638,16.419167)" /><g
     id="g4365"
     transform="translate(0.13377638,16.419167)" /><g
     id="g4367"
     transform="translate(0.13377638,16.419167)" /><g
     id="g4369"
     transform="translate(0.13377638,16.419167)" /><g
     id="g4371"
     transform="translate(0.13377638,16.419167)" /><g
     id="g4373"
     transform="translate(0.13377638,16.419167)" /><g
     id="g4532"
     transform="matrix(0.74270729,0,0,0.74270348,0.99999917,-60.381743)"><g
       transform="matrix(0.16690908,0,0,0.16690908,0,82.109092)"
       id="g4264"><g
         id="g55"
         transform="translate(-15.886,-1.5759973)"><path
           style="fill:#ab007c;fill-opacity:1"
           inkscape:connector-curvature="0"
           id="path57"
           d="m 67.797,70.139 -2.632,-2.632 -3.068,-3.068 -4.271,-4.272 -7.426,7.428 7.95,7.95 0,0 7.34,7.34 2.106,-2.108 c 2.934,-2.931 2.934,-7.706 10e-4,-10.638 z" /><path
           style="fill:#ab007c;fill-opacity:1"
           inkscape:connector-curvature="0"
           id="path59"
           d="m 43.873,90.023 -16.427,-16.427 6.089,-6.089 8.389,-8.388 0,0 0.087,-0.088 -0.001,0 7.34,-7.339 -2.021,-2.02 c -1.414,-1.416 -3.303,-2.193 -5.318,-2.193 -2.015,0 -3.904,0.777 -5.319,2.193 L 18.085,68.279 c -1.414,1.414 -2.191,3.304 -2.191,5.319 0,2.015 0.778,3.904 2.191,5.317 l 20.467,20.469 c 1.416,1.413 3.304,2.192 5.318,2.192 2.017,0 3.906,-0.779 5.321,-2.192 l 8.11,-8.11 -7.34,-7.34 -6.088,6.089 z" /></g><g
         id="g61"
         transform="translate(-15.886,-1.5759973)"><path
           style="fill:#0093a8;fill-opacity:1"
           inkscape:connector-curvature="0"
           id="path63"
           d="m 62.454,63.746 3.321,3.322 7.66,-7.656 0.295,-0.292 0,0 7.338,-7.34 -2.107,-2.107 C 77.547,48.257 75.66,47.48 73.642,47.48 c -2.017,0 -3.903,0.777 -5.318,2.193 l -9.972,9.971 4.102,4.102 z" /><path
           style="fill:#0093a8;fill-opacity:1"
           inkscape:connector-curvature="0"
           id="path65"
           d="m 89.456,60.167 -7.338,7.341 6.087,6.089 -16.425,16.428 -14.565,-14.566 0,0 -0.04,-0.039 -7.3,-7.301 -2.02,2.02 c -2.934,2.932 -2.934,7.704 0,10.638 L 66.46,99.384 c 1.414,1.413 3.305,2.192 5.32,2.192 2.014,0 3.902,-0.779 5.318,-2.192 L 97.565,78.915 c 2.932,-2.931 2.932,-7.704 0,-10.637 l -8.109,-8.111 z" /></g><g
         id="g67"
         transform="translate(-15.886,-1.5759973)"><path
           style="fill:#dd0124;fill-opacity:1"
           inkscape:connector-curvature="0"
           id="path69"
           d="m 57.825,59.12 7.429,-7.427 -7.952,-7.951 0,0 -7.34,-7.339 -2.106,2.107 c -2.934,2.932 -2.934,7.705 0,10.638 l 5.699,5.701 4.27,4.271 z" /><path
           style="fill:#dd0124;fill-opacity:1"
           inkscape:connector-curvature="0"
           id="path71"
           d="m 71.78,29.261 16.427,16.43 -14.566,14.563 0,0 -7.338,7.341 2.02,2.02 c 1.415,1.413 3.301,2.192 5.317,2.192 2.015,0 3.907,-0.779 5.321,-2.192 L 97.567,51.008 c 1.412,-1.413 2.193,-3.305 2.193,-5.32 0,-2.015 -0.778,-3.904 -2.193,-5.319 L 77.1,19.904 C 75.684,18.49 73.796,17.71 71.782,17.71 c -2.016,0 -3.907,0.78 -5.32,2.194 l -8.111,8.109 7.34,7.337 6.089,-6.089 z" /></g><g
         id="g73"
         transform="translate(-15.886,-1.5759973)"><path
           style="fill:#004d95;fill-opacity:1"
           inkscape:connector-curvature="0"
           id="path75"
           d="m 57.302,59.644 -4.104,-4.104 -3.323,-3.323 -7.951,7.95 0,0 -7.338,7.341 2.105,2.107 c 1.412,1.413 3.302,2.192 5.318,2.192 2.016,0 3.905,-0.779 5.319,-2.192 l 2.107,-2.107 4.194,-4.194 3.673,-3.67 z" /><path
           style="fill:#004d95;fill-opacity:1"
           inkscape:connector-curvature="0"
           id="path77"
           d="m 27.446,45.691 16.426,-16.43 14.566,14.566 0,0 1.042,1.043 6.293,6.297 2.022,-2.021 c 2.933,-2.932 2.933,-7.704 0,-10.638 L 49.192,19.904 C 47.777,18.49 45.887,17.71 43.871,17.71 c -2.015,0 -3.902,0.78 -5.318,2.194 L 18.085,40.369 c -2.932,2.933 -2.932,7.707 0,10.639 l 8.11,8.112 7.339,-7.34 -6.088,-6.089 z" /></g></g><path
       inkscape:connector-curvature="0"
       id="rect4481-8"
       d="m 12.35,91.65003 0,2.5 -5,0 0,3 5,0 0,2.5 3,-2 3,-2 -3,-2 -3,-2 z"
       style="fill:#ffffff;fill-opacity:1;stroke:#ffffff;stroke-width:1;stroke-linecap:round;stroke-linejoin:round;stroke-miterlimit:4;stroke-dasharray:none;stroke-opacity:1" /><path
       inkscape:connector-curvature="0"
       id="rect4481"
       d="m 12.35,91.65003 0,2.5 -5,0 0,3 5,0 0,2.5 3,-2 3,-2 -3,-2 -3,-2 z"
       style="fill:#ffffff;fill-opacity:1;stroke:#000000;stroke-width:0.69999999;stroke-linecap:round;stroke-linejoin:round;stroke-miterlimit:4;stroke-dasharray:none;stroke-opacity:1" /></g></svg>